<svg xmlns="http://www.w3.org/2000/svg" width="25.002" height="25" viewBox="0 0 25.002 25">
    <g id="_003-payment-method" data-name="003-payment-method" transform="translate(0 -0.023)">
        <g id="Group_271" data-name="Group 271" transform="translate(7.459 18.767)">
            <g id="Group_270" data-name="Group 270">
                <path id="Path_207" data-name="Path 207"
                    d="M153.717,384.25a.511.511,0,0,0-.028-.092.494.494,0,0,0-.045-.084.474.474,0,0,0-.135-.135.481.481,0,0,0-.084-.045.459.459,0,0,0-.091-.028.482.482,0,0,0-.19,0,.473.473,0,0,0-.092.028.5.5,0,0,0-.084.045.474.474,0,0,0-.135.135.462.462,0,0,0-.045.084.474.474,0,0,0-.028.092.469.469,0,0,0,0,.19.459.459,0,0,0,.028.091.451.451,0,0,0,.045.084.475.475,0,0,0,.135.135.494.494,0,0,0,.084.045.473.473,0,0,0,.092.028.469.469,0,0,0,.19,0,.459.459,0,0,0,.091-.028.484.484,0,0,0,.084-.045.475.475,0,0,0,.135-.135.482.482,0,0,0,.045-.084.493.493,0,0,0,.028-.091.469.469,0,0,0,0-.19Z"
                    transform="translate(-152.75 -383.857)" />
            </g>
        </g>
        <g id="Group_273" data-name="Group 273" transform="translate(0 15.156)">
            <g id="Group_272" data-name="Group 272">
                <path id="Path_208" data-name="Path 208"
                    d="M22.463,314.076l-.006-.014a2.031,2.031,0,0,0-2.751-1.014l-3.4.941a2.23,2.23,0,0,0-1.381-1.36l-.013,0-3.74-1.269a3.857,3.857,0,0,0-3.112-1.432,3.905,3.905,0,0,0-3.05,1.829H.488a.488.488,0,0,0-.488.488V318.4a.488.488,0,0,0,.488.488h2.9a.488.488,0,0,0,.488-.488v-.422H5.242a.488.488,0,0,0,.488-.488v-.141a3.462,3.462,0,0,1,1.784.64,29.548,29.548,0,0,0,2.934,1.5l.021.009a4.383,4.383,0,0,0,1.571.3,3.892,3.892,0,0,0,1.618-.346l7.52-2.692.039-.016A2.084,2.084,0,0,0,22.463,314.076ZM2.9,317.908H.977v-5.18H2.9Zm1.85-.91H3.88v-4.27h.873Zm16.074-1.16-7.516,2.691-.022.008-.02.008a3.165,3.165,0,0,1-2.432.041A28.293,28.293,0,0,1,8,317.14a4.395,4.395,0,0,0-2.272-.773v-3.933A3.016,3.016,0,0,1,8.058,310.9a2.818,2.818,0,0,1,2.39,1.123.488.488,0,0,0,.259.207l3.881,1.317a1.1,1.1,0,0,1,.8,1.293.952.952,0,0,1-1.169.657l-4.375-1.386a.488.488,0,0,0-.3.931l4.383,1.389.014,0a1.917,1.917,0,0,0,1.466-.17,1.915,1.915,0,0,0,.916-1.157q.017-.059.03-.119l3.666-1.016c.53-.181,1.225-.246,1.534.467C21.876,315.275,21.043,315.735,20.827,315.838Z"
                    transform="translate(0 -309.922)" />
            </g>
        </g>
        <g id="Group_275" data-name="Group 275" transform="translate(16.566 6.053)">
            <g id="Group_274" data-name="Group 274">
                <path id="Path_209" data-name="Path 209"
                    d="M340.217,123.891a.477.477,0,0,0-.028-.092.461.461,0,0,0-.045-.084.474.474,0,0,0-.135-.135.5.5,0,0,0-.084-.045.486.486,0,0,0-.282-.028.458.458,0,0,0-.091.028.482.482,0,0,0-.084.045.474.474,0,0,0-.135.135.493.493,0,0,0-.045.084.471.471,0,0,0-.028.092.469.469,0,0,0,0,.19.456.456,0,0,0,.028.091.48.48,0,0,0,.045.084.473.473,0,0,0,.135.135.481.481,0,0,0,.084.045.493.493,0,0,0,.091.028.481.481,0,0,0,.1.01.49.49,0,0,0,.1-.01.517.517,0,0,0,.091-.028.5.5,0,0,0,.084-.045.473.473,0,0,0,.135-.135.45.45,0,0,0,.045-.084.462.462,0,0,0,.028-.091.493.493,0,0,0,0-.19Z"
                    transform="translate(-339.25 -123.498)" />
            </g>
        </g>
        <g id="Group_277" data-name="Group 277" transform="translate(1.45 0.023)">
            <g id="Group_276" data-name="Group 276">
                <path id="Path_210" data-name="Path 210"
                    d="M52.755,1.677h-2.9a.488.488,0,0,0-.488.488v.422H48a.488.488,0,0,0-.488.488v.141a3.462,3.462,0,0,1-1.784-.64,29.548,29.548,0,0,0-2.934-1.5l-.021-.009a4.155,4.155,0,0,0-3.189.05l-1.965.7L35.964.166a.488.488,0,0,0-.691,0L29.836,5.6a.484.484,0,0,0,0,.691l9.292,9.292a.528.528,0,0,0,.691,0l4.965-4.965c.129.011.263.017.4.017a3.9,3.9,0,0,0,3.05-1.829h4.52a.488.488,0,0,0,.488-.488V2.165A.488.488,0,0,0,52.755,1.677ZM35.619,1.2l1.113,1.113a2.129,2.129,0,0,1-2.226,0Zm-3.634,5.86L30.872,5.949l1.113-1.113a2.129,2.129,0,0,1,0,2.226Zm7.489,7.489L38.36,13.438a2.126,2.126,0,0,1,2.226,0Zm1.816-1.816a3.1,3.1,0,0,0-3.633,0L32.688,7.766a3.1,3.1,0,0,0,0-3.633L33.8,3.019a3.1,3.1,0,0,0,3.633,0l1.056,1.056A1.936,1.936,0,0,0,37.038,5.14a2.783,2.783,0,1,0,3.2,3.445l1.649.56A3.118,3.118,0,0,0,42.4,11.62Zm-2.969-4.8.013,0,.976.331a1.807,1.807,0,1,1-2.453-2.064A2.162,2.162,0,0,0,38.321,7.934Zm4.788,2.982A2.136,2.136,0,0,1,42.8,9.9a3.8,3.8,0,0,0,.861.466Zm4.4-2.788a3.016,3.016,0,0,1-2.328,1.535,3.554,3.554,0,0,1-.509-.036h0a2.8,2.8,0,0,1-1.809-.99c-.01-.015-.052-.07-.059-.079a.487.487,0,0,0-.269-.224L38.654,7.016a1.1,1.1,0,0,1-.8-1.292h0a.951.951,0,0,1,1.169-.655L43.4,6.453a.488.488,0,1,0,.3-.931l-3.48-1.1-.03-.03h0l-1.8-1.8,1.548-.554.017-.006.005,0,.02-.008a3.165,3.165,0,0,1,2.432-.041,28.287,28.287,0,0,1,2.835,1.448,4.395,4.395,0,0,0,2.272.773Zm1.85-.294H48.49V3.564h.873Zm2.9,0H50.34V2.654h1.927Z"
                    transform="translate(-29.691 -0.023)" />
            </g>
        </g>
    </g>
</svg>
