<svg xmlns="http://www.w3.org/2000/svg" width="39.522" height="25" viewBox="0 0 39.522 25">
    <g id="shipped" transform="translate(0 -94.062)">
        <g id="Group_297" data-name="Group 297" transform="translate(0 94.062)">
            <g id="Group_296" data-name="Group 296">
                <path id="Path_211" data-name="Path 211"
                    d="M36.755,104.66l-1.023-4.094a.619.619,0,0,0,.49-.605V99.3a2.6,2.6,0,0,0-2.6-2.6H28.961V95.341a1.28,1.28,0,0,0-1.279-1.279H3.919A1.28,1.28,0,0,0,2.64,95.341v11.221a.619.619,0,1,0,1.238,0V95.341a.041.041,0,0,1,.041-.041H27.682a.041.041,0,0,1,.041.041v11.221a.619.619,0,1,0,1.238,0v-.7h7.3a2.025,2.025,0,0,1,1.923,1.4H36.262a.619.619,0,0,0-.619.619v1.32a1.941,1.941,0,0,0,1.939,1.939h.7v2.723H36.666a3.918,3.918,0,0,0-7.408,0h-.3V109.2a.619.619,0,1,0-1.238,0v4.662H14.884a3.918,3.918,0,0,0-7.408,0H3.919a.041.041,0,0,1-.041-.041v-1.361H6.559a.619.619,0,0,0,0-1.238H.619a.619.619,0,0,0,0,1.238H2.64v1.361A1.28,1.28,0,0,0,3.919,115.1H7.262c0,.014,0,.027,0,.041a3.919,3.919,0,0,0,7.838,0c0-.014,0-.027,0-.041H29.044c0,.014,0,.027,0,.041a3.919,3.919,0,0,0,7.838,0c0-.014,0-.027,0-.041H38.9a.619.619,0,0,0,.619-.619v-6.6A3.264,3.264,0,0,0,36.755,104.66Zm-7.794-6.72h4.662A1.363,1.363,0,0,1,34.984,99.3v.041H28.961Zm0,6.683V100.58h5.5l1.011,4.043Zm-17.781,13.2a2.682,2.682,0,1,1,2.682-2.682A2.685,2.685,0,0,1,11.18,117.825Zm21.782,0a2.682,2.682,0,1,1,2.682-2.682A2.685,2.685,0,0,1,32.962,117.825Zm5.322-7.921h-.7a.7.7,0,0,1-.7-.7v-.7h1.4v1.4Z"
                    transform="translate(0 -94.062)" />
            </g>
        </g>
        <g id="Group_299" data-name="Group 299" transform="translate(9.901 113.864)">
            <g id="Group_298" data-name="Group 298" transform="translate(0 0)">
                <path id="Path_212" data-name="Path 212"
                    d="M129.546,350.6a1.279,1.279,0,1,0,1.279,1.279A1.28,1.28,0,0,0,129.546,350.6Z"
                    transform="translate(-128.267 -350.597)" />
            </g>
        </g>
        <g id="Group_301" data-name="Group 301" transform="translate(31.683 113.864)">
            <g id="Group_300" data-name="Group 300" transform="translate(0 0)">
                <path id="Path_213" data-name="Path 213"
                    d="M411.734,350.6a1.279,1.279,0,1,0,1.279,1.279A1.28,1.28,0,0,0,411.734,350.6Z"
                    transform="translate(-410.455 -350.597)" />
            </g>
        </g>
        <g id="Group_303" data-name="Group 303" transform="translate(15.842 111.224)">
            <g id="Group_302" data-name="Group 302" transform="translate(0 0)">
                <path id="Path_214" data-name="Path 214"
                    d="M215.087,316.393h-9.241a.619.619,0,0,0,0,1.238h9.241a.619.619,0,1,0,0-1.238Z"
                    transform="translate(-205.227 -316.393)" />
            </g>
        </g>
        <g id="Group_305" data-name="Group 305" transform="translate(1.32 108.584)">
            <g id="Group_304" data-name="Group 304" transform="translate(0 0)">
                <path id="Path_215" data-name="Path 215"
                    d="M25.642,282.188H17.721a.619.619,0,0,0,0,1.238h7.921a.619.619,0,0,0,0-1.238Z"
                    transform="translate(-17.102 -282.188)" />
            </g>
        </g>
        <g id="Group_307" data-name="Group 307" transform="translate(11.221 100.003)">
            <g id="Group_306" data-name="Group 306" transform="translate(0 0)">
                <path id="Path_216" data-name="Path 216"
                    d="M155.667,171.2a.619.619,0,0,0-.875,0l-5.5,5.5-2.863-2.863a.619.619,0,0,0-.875.875l3.3,3.3a.619.619,0,0,0,.875,0l5.941-5.941A.619.619,0,0,0,155.667,171.2Z"
                    transform="translate(-145.37 -171.023)" />
            </g>
        </g>
    </g>
</svg>
