<svg xmlns="http://www.w3.org/2000/svg" xmlns:xlink="http://www.w3.org/1999/xlink" width="25"
    height="25" viewBox="0 0 25 25">
    <defs>
        <clipPath id="clip-path">
            <rect id="Rectangle_96" data-name="Rectangle 96" width="25" height="25" fill="#fff" />
        </clipPath>
    </defs>
    <g id="quality" clip-path="url(#clip-path)">
        <path id="Path_217" data-name="Path 217"
            d="M22.791,21.28l-3.165-7.64a.381.381,0,0,0-.7.292l2.861,6.907-2.61-.756a.381.381,0,0,0-.44.182l-1.311,2.38-3.07-7.412a7.692,7.692,0,1,0-7.624-2.963L3,21.28a.382.382,0,0,0,.459.512L6.533,20.9,8.08,23.708a.382.382,0,0,0,.334.2h.021a.381.381,0,0,0,.331-.235l2.957-7.139a.381.381,0,0,0-.7-.292L8.365,22.645l-1.311-2.38a.382.382,0,0,0-.44-.182L4,20.838,7.28,12.931a7.666,7.666,0,0,0,5.613,2.442c.228,0,.454-.011.678-.03L17.02,23.67a.381.381,0,0,0,.331.235h.021a.381.381,0,0,0,.334-.2L19.253,20.9l3.079.892a.381.381,0,0,0,.459-.512ZM5.97,7.686a6.923,6.923,0,1,1,6.923,6.923A6.931,6.931,0,0,1,5.97,7.686Z"
            transform="translate(-0.867 0.511)" fill="#202224" />
        <path id="Path_218" data-name="Path 218"
            d="M20.172,7.786a.4.4,0,0,0-.31-.268L17.2,7.072,15.956,4.681a.4.4,0,0,0-.7,0L14.009,7.072l-2.659.446a.4.4,0,0,0-.217.667l1.889,1.924-.4,2.667a.4.4,0,0,0,.567.412l2.414-1.2,2.414,1.2a.4.4,0,0,0,.567-.412l-.4-2.667,1.889-1.924a.4.4,0,0,0,.094-.4ZM17.487,9.7a.4.4,0,0,0-.109.335l.315,2.112-1.911-.952a.395.395,0,0,0-.352,0l-1.911.952.315-2.112a.4.4,0,0,0-.109-.335l-1.5-1.524,2.106-.353a.4.4,0,0,0,.285-.207l.987-1.893.987,1.893a.4.4,0,0,0,.285.207l2.106.353L17.487,9.7Z"
            transform="translate(-3.222 -1.073)" fill="#202224" />
        <g id="Path_219" data-name="Path 219" transform="translate(5.882 1.838)" fill="none">
            <path d="M6.222,0A6.222,6.222,0,1,1,0,6.222,6.222,6.222,0,0,1,6.222,0Z" stroke="none" />
            <path
                d="M 6.222354412078857 1.000004768371582 C 3.342744827270508 1.000004768371582 1.000004768371582 3.342744827270508 1.000004768371582 6.222354412078857 C 1.000004768371582 9.101964950561523 3.342744827270508 11.44470405578613 6.222354412078857 11.44470405578613 C 9.101964950561523 11.44470405578613 11.44470405578613 9.101964950561523 11.44470405578613 6.222354412078857 C 11.44470405578613 3.342744827270508 9.101964950561523 1.000004768371582 6.222354412078857 1.000004768371582 M 6.222354412078857 4.76837158203125e-06 C 9.658864974975586 4.76837158203125e-06 12.44470405578613 2.785844802856445 12.44470405578613 6.222354412078857 C 12.44470405578613 9.658864974975586 9.658864974975586 12.44470405578613 6.222354412078857 12.44470405578613 C 2.785844802856445 12.44470405578613 4.76837158203125e-06 9.658864974975586 4.76837158203125e-06 6.222354412078857 C 4.76837158203125e-06 2.785844802856445 2.785844802856445 4.76837158203125e-06 6.222354412078857 4.76837158203125e-06 Z"
                stroke="none" fill="#202224" />
        </g>
    </g>
</svg>
