<svg xmlns="http://www.w3.org/2000/svg" width="16.2" height="18" viewBox="0 0 16.2 18"><g transform="translate(-25.416 -5)"><path d="M59.367,50.287H64.64a.194.194,0,0,0,0-.387H59.367a.194.194,0,0,0,0,.387Z" transform="translate(-32.668 -43.451)"/><path d="M55.467,413.906H50.194a.194.194,0,1,0,0,.387h5.273a.194.194,0,1,0,0-.387Z" transform="translate(-23.791 -395.71)"/><path d="M55.467,368.405H50.194a.194.194,0,0,0,0,.387h5.273a.194.194,0,0,0,0-.387Z" transform="translate(-23.791 -351.678)"/><path d="M53.844,95.787H64.389a.194.194,0,1,0,0-.387H53.844a.194.194,0,1,0,0,.387Z" transform="translate(-27.323 -87.483)"/><path d="M53.844,141.287H64.389a.194.194,0,1,0,0-.387H53.844a.194.194,0,1,0,0,.387Z" transform="translate(-27.323 -131.514)"/><path d="M53.844,186.787H64.389a.194.194,0,1,0,0-.387H53.844a.194.194,0,1,0,0,.387Z" transform="translate(-27.323 -175.546)"/><path d="M53.844,232.287H64.389a.194.194,0,0,0,0-.387H53.844a.194.194,0,0,0,0,.387Z" transform="translate(-27.323 -219.578)"/><path d="M53.844,277.787H64.389a.194.194,0,0,0,0-.387H53.844a.194.194,0,0,0,0,.387Z" transform="translate(-27.323 -263.609)"/><path d="M53.844,323.287h8.014a.194.194,0,1,0,0-.387H53.844a.194.194,0,1,0,0,.387Z" transform="translate(-27.323 -307.641)"/><path d="M38.135,15.572V5.848A.851.851,0,0,0,37.283,5H26.269a.851.851,0,0,0-.853.848V19.77a.851.851,0,0,0,.853.848h9.254a3.037,3.037,0,0,0,1.8.583A2.928,2.928,0,0,0,40.3,18.332,2.892,2.892,0,0,0,38.135,15.572ZM25.8,19.77V5.848a.463.463,0,0,1,.466-.46H37.283a.463.463,0,0,1,.465.46v9.645a3.1,3.1,0,0,0-.428-.03,2.928,2.928,0,0,0-2.978,2.868,2.8,2.8,0,0,0,.748,1.9H26.269a.463.463,0,0,1-.466-.46ZM37.32,20.813a2.847,2.847,0,0,1-1.714-.622,2.3,2.3,0,0,1-.877-1.859,2.594,2.594,0,1,1,2.591,2.481Z" transform="translate(0 0)"/><g transform="translate(29.016 10.4)" fill="#fff" stroke="#000" stroke-width="0.5"><circle cx="6.3" cy="6.3" r="6.3" stroke="none"/><circle cx="6.3" cy="6.3" r="6.05" fill="none"/></g><g transform="translate(33.066 14)"><path d="M359.474,373.279h-.044v-.533a1.191,1.191,0,0,0-1.125-1.245h-1.326a1.191,1.191,0,0,0-1.125,1.245v.533h-.044a.465.465,0,0,0-.465.465V376.6a.465.465,0,0,0,.465.465h3.664a.465.465,0,0,0,.465-.465v-2.855A.465.465,0,0,0,359.474,373.279Zm-2.923-.533a.506.506,0,0,1,.428-.547h1.326a.506.506,0,0,1,.428.547v.533h-2.182Zm2.69,3.621h-3.2v-2.391h3.2Z" transform="translate(-355.345 -371.502)"/><path d="M388.99,427.044a.349.349,0,0,0,.7,0v-.359a.455.455,0,0,0,.116-.3.465.465,0,0,0-.93,0,.455.455,0,0,0,.116.3Z" transform="translate(-386.926 -422.755)"/></g></g></svg>